#define A_width 33
#define A_height 20
static char A_bits[] = {
 0x00,0x00,0x00,0x00,0x00,0x00,0x00,0x00,0x00,0x00,0x00,0x00,0x00,0x00,0x00,
 0x00,0x00,0x00,0x00,0x00,0x00,0x00,0x00,0x00,0x00,0x00,0x80,0x01,0x00,0x00,
 0x00,0x80,0x01,0x00,0x00,0x00,0x80,0x03,0x00,0x00,0x00,0x40,0x03,0x00,0x00,
 0x00,0x40,0x03,0x00,0x00,0x00,0x20,0x06,0x00,0x00,0x00,0xe0,0x07,0x00,0x00,
 0x00,0x10,0x0e,0x00,0x00,0x00,0x10,0x0c,0x00,0x00,0x00,0x3c,0x3e,0x00,0x00,
 0x00,0x00,0x00,0x00,0x00,0x00,0x00,0x00,0x00,0x00,0x00,0x00,0x00,0x00,0x00,
 0x00,0x00,0x00,0x00,0x00,0x00,0x00,0x00,0x00,0x00};
