#define A_m_width 33
#define A_m_height 20
static char A_m_bits[] = {
 0x00,0x00,0x00,0x00,0x00,0x00,0x00,0x00,0x00,0x00,0x00,0x00,0x00,0x00,0x00,
 0x00,0x00,0x00,0x00,0x00,0x00,0x00,0x00,0x00,0x00,0x00,0x06,0x00,0x00,0x00,
 0x00,0x06,0x00,0x00,0x00,0x00,0x0e,0x00,0x00,0x00,0x00,0x0d,0x00,0x00,0x00,
 0x00,0x0d,0xfe,0x0f,0x00,0x80,0x18,0xce,0x0c,0x00,0x80,0x1f,0xc6,0x0c,0x00,
 0x40,0x38,0xc6,0x0c,0x00,0x40,0x30,0xc6,0x0c,0x00,0xf0,0xf8,0xee,0x1f,0x00,
 0x00,0x00,0x00,0x00,0x00,0x00,0x00,0x00,0x00,0x00,0x00,0x00,0x00,0x00,0x00,
 0x00,0x00,0x00,0x00,0x00,0x00,0x00,0x00,0x00,0x00};
