#define Ais_m_width 33
#define Ais_m_height 20
static char Ais_m_bits[] = {
 0x00,0x00,0x00,0x00,0x00,0x00,0x00,0x00,0x00,0x00,0x00,0x00,0x00,0x00,0x00,
 0x00,0x00,0x00,0x00,0x00,0x00,0x00,0x01,0x00,0x00,0x60,0x00,0x01,0x00,0x00,
 0x60,0x20,0x01,0x00,0x00,0xe0,0xa0,0x03,0x00,0x00,0xd0,0xe0,0x01,0x00,0x00,
 0xd0,0xe0,0xf1,0x7f,0x00,0x88,0x21,0x71,0x66,0x00,0xf8,0x21,0x31,0x66,0x00,
 0x84,0x23,0x31,0x66,0x00,0x04,0x23,0x31,0x66,0x00,0x8f,0xef,0x73,0xff,0x00,
 0x00,0xe0,0x01,0x00,0x00,0x00,0x20,0x01,0x00,0x00,0x00,0x20,0x00,0x00,0x00,
 0x00,0x00,0x00,0x00,0x00,0x00,0x00,0x00,0x00,0x00};
