#define As_width 33
#define As_height 20
static char As_bits[] = {
 0x00,0x00,0x00,0x00,0x00,0x00,0x00,0x00,0x00,0x00,0x00,0x00,0x00,0x00,0x00,
 0x00,0x00,0x00,0x00,0x00,0x00,0x00,0x20,0x00,0x00,0x00,0x30,0x20,0x00,0x00,
 0x00,0x30,0x20,0x00,0x00,0x00,0x70,0x20,0x00,0x00,0x00,0x68,0xe0,0x01,0x00,
 0x00,0x68,0x20,0x03,0x00,0x00,0xc4,0x20,0x03,0x00,0x00,0xfc,0x20,0x03,0x00,
 0x00,0xc2,0xa1,0x01,0x00,0x00,0x82,0xa1,0x00,0x00,0x80,0xc7,0x67,0x00,0x00,
 0x00,0x00,0x00,0x00,0x00,0x00,0x00,0x00,0x00,0x00,0x00,0x00,0x00,0x00,0x00,
 0x00,0x00,0x00,0x00,0x00,0x00,0x00,0x00,0x00,0x00};
