#define As_m_width 33
#define As_m_height 20
static char As_m_bits[] = {
 0x00,0x00,0x00,0x00,0x00,0x00,0x00,0x00,0x00,0x00,0x00,0x00,0x00,0x00,0x00,
 0x00,0x00,0x00,0x00,0x00,0x00,0x40,0x00,0x00,0x00,0xc0,0x40,0x00,0x00,0x00,
 0xc0,0x40,0x00,0x00,0x00,0xc0,0x41,0x00,0x00,0x00,0xa0,0xc1,0x03,0x00,0x00,
 0xa0,0x41,0xf6,0x7f,0x00,0x10,0x43,0x76,0x66,0x00,0xf0,0x43,0x36,0x66,0x00,
 0x08,0x47,0x33,0x66,0x00,0x08,0x46,0x31,0x66,0x00,0x1e,0xdf,0x70,0xff,0x00,
 0x00,0x00,0x00,0x00,0x00,0x00,0x00,0x00,0x00,0x00,0x00,0x00,0x00,0x00,0x00,
 0x00,0x00,0x00,0x00,0x00,0x00,0x00,0x00,0x00,0x00};
