#define B_width 33
#define B_height 20
static char B_bits[] = {
 0x00,0x00,0x00,0x00,0x00,0x00,0x00,0x00,0x00,0x00,0x00,0x00,0x00,0x00,0x00,
 0x00,0x00,0x00,0x00,0x00,0x00,0x00,0x10,0x00,0x00,0x00,0xff,0x11,0x00,0x00,
 0x00,0x0c,0x13,0x00,0x00,0x00,0x0c,0x17,0x00,0x00,0x00,0x0c,0xf3,0x00,0x00,
 0x00,0xfc,0x91,0x01,0x00,0x00,0x0c,0x93,0x01,0x00,0x00,0x0c,0x96,0x01,0x00,
 0x00,0x0c,0xd6,0x00,0x00,0x00,0x0c,0x57,0x00,0x00,0x00,0xff,0x31,0x00,0x00,
 0x00,0x00,0x00,0x00,0x00,0x00,0x00,0x00,0x00,0x00,0x00,0x00,0x00,0x00,0x00,
 0x00,0x00,0x00,0x00,0x00,0x00,0x00,0x00,0x00,0x00};
