#define B_m_width 33
#define B_m_height 20
static char B_m_bits[] = {
 0x00,0x00,0x00,0x00,0x00,0x00,0x00,0x00,0x00,0x00,0x00,0x00,0x00,0x00,0x00,
 0x00,0x00,0x00,0x00,0x00,0x00,0x20,0x00,0x00,0x00,0xfe,0x23,0x00,0x00,0x00,
 0x18,0x26,0x00,0x00,0x00,0x18,0x2e,0x00,0x00,0x00,0x18,0xe6,0x01,0x00,0x00,
 0xf8,0x23,0xf3,0x7f,0x00,0x18,0x26,0x73,0x66,0x00,0x18,0x2c,0x33,0x66,0x00,
 0x18,0xac,0x31,0x66,0x00,0x18,0xae,0x30,0x66,0x00,0xfe,0x63,0x70,0xff,0x00,
 0x00,0x00,0x00,0x00,0x00,0x00,0x00,0x00,0x00,0x00,0x00,0x00,0x00,0x00,0x00,
 0x00,0x00,0x00,0x00,0x00,0x00,0x00,0x00,0x00,0x00};
