#define C_m_width 33
#define C_m_height 20
static char C_m_bits[] = {
 0x00,0x00,0x00,0x00,0x00,0x00,0x00,0x00,0x00,0x00,0x00,0x00,0x00,0x00,0x00,
 0x00,0x00,0x00,0x00,0x00,0x00,0x00,0x00,0x00,0x00,0x00,0x5f,0x00,0x00,0x00,
 0xc0,0x70,0x00,0x00,0x00,0xc0,0x60,0x00,0x00,0x00,0x60,0x40,0x00,0x00,0x00,
 0x60,0x40,0xff,0x07,0x00,0x60,0x00,0x67,0x06,0x00,0x60,0x40,0x63,0x06,0x00,
 0x60,0x40,0x63,0x06,0x00,0xc0,0x20,0x63,0x06,0x00,0x00,0x1f,0xf7,0x0f,0x00,
 0x00,0x00,0x00,0x00,0x00,0x00,0x00,0x00,0x00,0x00,0x00,0x00,0x00,0x00,0x00,
 0x00,0x00,0x00,0x00,0x00,0x00,0x00,0x00,0x00,0x00};
