#define Ces_width 33
#define Ces_height 20
static char Ces_bits[] = {
 0x00,0x00,0x00,0x00,0x00,0x00,0x00,0x00,0x00,0x00,0x00,0x00,0x00,0x00,0x00,
 0x00,0x00,0x00,0x00,0x00,0x00,0x00,0x10,0x00,0x00,0x00,0xf8,0x12,0x00,0x00,
 0x00,0x86,0x13,0x00,0x00,0x00,0x06,0x13,0x00,0x00,0x00,0x03,0xf2,0x00,0x00,
 0x00,0x03,0x92,0x01,0x00,0x00,0x03,0x90,0x01,0x00,0x00,0x03,0x92,0x01,0x00,
 0x00,0x03,0xd2,0x00,0x00,0x00,0x06,0x51,0x00,0x00,0x00,0xf8,0x30,0x00,0x00,
 0x00,0x00,0x00,0x00,0x00,0x00,0x00,0x00,0x00,0x00,0x00,0x00,0x00,0x00,0x00,
 0x00,0x00,0x00,0x00,0x00,0x00,0x00,0x00,0x00,0x00};
