#define Cis_width 33
#define Cis_height 20
static char Cis_bits[] = {
 0x00,0x00,0x00,0x00,0x00,0x00,0x00,0x00,0x00,0x00,0x00,0x00,0x00,0x00,0x00,
 0x00,0x00,0x00,0x00,0x00,0x00,0x00,0x80,0x00,0x00,0x00,0xf8,0x82,0x00,0x00,
 0x00,0x86,0x93,0x00,0x00,0x00,0x06,0xd3,0x01,0x00,0x00,0x03,0xf2,0x00,0x00,
 0x00,0x03,0xf2,0x00,0x00,0x00,0x03,0x90,0x00,0x00,0x00,0x03,0x92,0x00,0x00,
 0x00,0x03,0x92,0x00,0x00,0x00,0x06,0x91,0x00,0x00,0x00,0xf8,0xf0,0x01,0x00,
 0x00,0x00,0xf0,0x00,0x00,0x00,0x00,0x90,0x00,0x00,0x00,0x00,0x10,0x00,0x00,
 0x00,0x00,0x00,0x00,0x00,0x00,0x00,0x00,0x00,0x00};
