#define Cis_m_width 33
#define Cis_m_height 20
static char Cis_m_bits[] = {
 0x00,0x00,0x00,0x00,0x00,0x00,0x00,0x00,0x00,0x00,0x00,0x00,0x00,0x00,0x00,
 0x00,0x00,0x00,0x00,0x00,0x00,0x00,0x01,0x00,0x00,0xf0,0x05,0x01,0x00,0x00,
 0x0c,0x27,0x01,0x00,0x00,0x0c,0xa6,0x03,0x00,0x00,0x06,0xe4,0x01,0x00,0x00,
 0x06,0xe4,0xf9,0x3f,0x00,0x06,0x20,0x39,0x33,0x00,0x06,0x24,0x19,0x33,0x00,
 0x06,0x24,0x19,0x33,0x00,0x0c,0x22,0x19,0x33,0x00,0xf0,0xe1,0xbb,0x7f,0x00,
 0x00,0xe0,0x01,0x00,0x00,0x00,0x20,0x01,0x00,0x00,0x00,0x20,0x00,0x00,0x00,
 0x00,0x00,0x00,0x00,0x00,0x00,0x00,0x00,0x00,0x00};
