#define D_width 33
#define D_height 20
static char D_bits[] = {
 0x00,0x00,0x00,0x00,0x00,0x00,0x00,0x00,0x00,0x00,0x00,0x00,0x00,0x00,0x00,
 0x00,0x00,0x00,0x00,0x00,0x00,0x00,0x00,0x00,0x00,0x00,0xfc,0x07,0x00,0x00,
 0x00,0x30,0x0c,0x00,0x00,0x00,0x30,0x08,0x00,0x00,0x00,0x30,0x18,0x00,0x00,
 0x00,0x30,0x18,0x00,0x00,0x00,0x30,0x18,0x00,0x00,0x00,0x30,0x18,0x00,0x00,
 0x00,0x30,0x18,0x00,0x00,0x00,0x30,0x0c,0x00,0x00,0x00,0xfc,0x07,0x00,0x00,
 0x00,0x00,0x00,0x00,0x00,0x00,0x00,0x00,0x00,0x00,0x00,0x00,0x00,0x00,0x00,
 0x00,0x00,0x00,0x00,0x00,0x00,0x00,0x00,0x00,0x00};
