#define D_m_width 33
#define D_m_height 20
static char D_m_bits[] = {
 0x00,0x00,0x00,0x00,0x00,0x00,0x00,0x00,0x00,0x00,0x00,0x00,0x00,0x00,0x00,
 0x00,0x00,0x00,0x00,0x00,0x00,0x00,0x00,0x00,0x00,0xf8,0x0f,0x00,0x00,0x00,
 0x60,0x18,0x00,0x00,0x00,0x60,0x10,0x00,0x00,0x00,0x60,0x30,0x00,0x00,0x00,
 0x60,0x30,0xfe,0x0f,0x00,0x60,0x30,0xce,0x0c,0x00,0x60,0x30,0xc6,0x0c,0x00,
 0x60,0x30,0xc6,0x0c,0x00,0x60,0x18,0xc6,0x0c,0x00,0xf8,0x0f,0xee,0x1f,0x00,
 0x00,0x00,0x00,0x00,0x00,0x00,0x00,0x00,0x00,0x00,0x00,0x00,0x00,0x00,0x00,
 0x00,0x00,0x00,0x00,0x00,0x00,0x00,0x00,0x00,0x00};
