#define Des_width 33
#define Des_height 20
static char Des_bits[] = {
 0x00,0x00,0x00,0x00,0x00,0x00,0x00,0x00,0x00,0x00,0x00,0x00,0x00,0x00,0x00,
 0x00,0x00,0x00,0x00,0x00,0x00,0x00,0x10,0x00,0x00,0x80,0xff,0x10,0x00,0x00,
 0x00,0x86,0x11,0x00,0x00,0x00,0x06,0x11,0x00,0x00,0x00,0x06,0xf3,0x00,0x00,
 0x00,0x06,0x93,0x01,0x00,0x00,0x06,0x93,0x01,0x00,0x00,0x06,0x93,0x01,0x00,
 0x00,0x06,0xd3,0x00,0x00,0x00,0x86,0x51,0x00,0x00,0x80,0xff,0x30,0x00,0x00,
 0x00,0x00,0x00,0x00,0x00,0x00,0x00,0x00,0x00,0x00,0x00,0x00,0x00,0x00,0x00,
 0x00,0x00,0x00,0x00,0x00,0x00,0x00,0x00,0x00,0x00};
