#define Dis_m_width 33
#define Dis_m_height 20
static char Dis_m_bits[] = {
 0x00,0x00,0x00,0x00,0x00,0x00,0x00,0x00,0x00,0x00,0x00,0x00,0x00,0x00,0x00,
 0x00,0x00,0x00,0x00,0x00,0x00,0x00,0x01,0x00,0x00,0xff,0x01,0x01,0x00,0x00,
 0x0c,0x23,0x01,0x00,0x00,0x0c,0xa2,0x03,0x00,0x00,0x0c,0xe6,0x01,0x00,0x00,
 0x0c,0xe6,0xf1,0x7f,0x00,0x0c,0x26,0x71,0x66,0x00,0x0c,0x26,0x31,0x66,0x00,
 0x0c,0x26,0x31,0x66,0x00,0x0c,0x23,0x31,0x66,0x00,0xff,0xe1,0x73,0xff,0x00,
 0x00,0xe0,0x01,0x00,0x00,0x00,0x20,0x01,0x00,0x00,0x00,0x20,0x00,0x00,0x00,
 0x00,0x00,0x00,0x00,0x00,0x00,0x00,0x00,0x00,0x00};
