#define E_width 33
#define E_height 20
static char E_bits[] = {
 0x00,0x00,0x00,0x00,0x00,0x00,0x00,0x00,0x00,0x00,0x00,0x00,0x00,0x00,0x00,
 0x00,0x00,0x00,0x00,0x00,0x00,0x00,0x00,0x00,0x00,0x00,0xf8,0x0f,0x00,0x00,
 0x00,0x60,0x18,0x00,0x00,0x00,0x60,0x10,0x00,0x00,0x00,0x60,0x02,0x00,0x00,
 0x00,0xe0,0x03,0x00,0x00,0x00,0x60,0x02,0x00,0x00,0x00,0x60,0x12,0x00,0x00,
 0x00,0x60,0x10,0x00,0x00,0x00,0x60,0x18,0x00,0x00,0x00,0xf8,0x1f,0x00,0x00,
 0x00,0x00,0x00,0x00,0x00,0x00,0x00,0x00,0x00,0x00,0x00,0x00,0x00,0x00,0x00,
 0x00,0x00,0x00,0x00,0x00,0x00,0x00,0x00,0x00,0x00};
