#define E_m_width 33
#define E_m_height 20
static char E_m_bits[] = {
 0x00,0x00,0x00,0x00,0x00,0x00,0x00,0x00,0x00,0x00,0x00,0x00,0x00,0x00,0x00,
 0x00,0x00,0x00,0x00,0x00,0x00,0x00,0x00,0x00,0x00,0xe0,0x3f,0x00,0x00,0x00,
 0x80,0x61,0x00,0x00,0x00,0x80,0x41,0x00,0x00,0x00,0x80,0x09,0x00,0x00,0x00,
 0x80,0x0f,0xff,0x07,0x00,0x80,0x09,0x67,0x06,0x00,0x80,0x49,0x63,0x06,0x00,
 0x80,0x41,0x63,0x06,0x00,0x80,0x61,0x63,0x06,0x00,0xe0,0x7f,0xf7,0x0f,0x00,
 0x00,0x00,0x00,0x00,0x00,0x00,0x00,0x00,0x00,0x00,0x00,0x00,0x00,0x00,0x00,
 0x00,0x00,0x00,0x00,0x00,0x00,0x00,0x00,0x00,0x00};
