#define eq_width 19
#define eq_height 16
static char eq_bits[] = {
 0x00,0x00,0x00,0x00,0x00,0x00,0x00,0x00,0x00,0x00,0x00,0x00,0x00,0x00,0x00,
 0x00,0x00,0x00,0x1e,0x0f,0x00,0xb2,0x08,0x00,0xbe,0x08,0x00,0xa2,0x88,0x01,
 0x3c,0x8f,0x01,0x00,0x08,0x00,0x00,0x1c,0x00,0x00,0x00,0x00,0x00,0x00,0x00,
 0x00,0x00,0x00};
