#define Es_width 33
#define Es_height 20
static char Es_bits[] = {
 0x00,0x00,0x00,0x00,0x00,0x00,0x00,0x00,0x00,0x00,0x00,0x00,0x00,0x00,0x00,
 0x00,0x00,0x00,0x00,0x00,0x00,0x00,0x10,0x00,0x00,0x00,0xff,0x11,0x00,0x00,
 0x00,0x0c,0x13,0x00,0x00,0x00,0x0c,0x12,0x00,0x00,0x00,0x4c,0xf0,0x00,0x00,
 0x00,0x7c,0x90,0x01,0x00,0x00,0x4c,0x90,0x01,0x00,0x00,0x4c,0x92,0x01,0x00,
 0x00,0x0c,0xd2,0x00,0x00,0x00,0x0c,0x53,0x00,0x00,0x00,0xff,0x33,0x00,0x00,
 0x00,0x00,0x00,0x00,0x00,0x00,0x00,0x00,0x00,0x00,0x00,0x00,0x00,0x00,0x00,
 0x00,0x00,0x00,0x00,0x00,0x00,0x00,0x00,0x00,0x00};
