#define Es_m_width 33
#define Es_m_height 20
static char Es_m_bits[] = {
 0x00,0x00,0x00,0x00,0x00,0x00,0x00,0x00,0x00,0x00,0x00,0x00,0x00,0x00,0x00,
 0x00,0x00,0x00,0x00,0x00,0x00,0x20,0x00,0x00,0x00,0xfc,0x27,0x00,0x00,0x00,
 0x30,0x2c,0x00,0x00,0x00,0x30,0x28,0x00,0x00,0x00,0x30,0xe1,0x01,0x00,0x00,
 0xf0,0x21,0xf3,0x7f,0x00,0x30,0x21,0x73,0x66,0x00,0x30,0x29,0x33,0x66,0x00,
 0x30,0xa8,0x31,0x66,0x00,0x30,0xac,0x30,0x66,0x00,0xfc,0x6f,0x70,0xff,0x00,
 0x00,0x00,0x00,0x00,0x00,0x00,0x00,0x00,0x00,0x00,0x00,0x00,0x00,0x00,0x00,
 0x00,0x00,0x00,0x00,0x00,0x00,0x00,0x00,0x00,0x00};
