#define F_width 33
#define F_height 20
static char F_bits[] = {
 0x00,0x00,0x00,0x00,0x00,0x00,0x00,0x00,0x00,0x00,0x00,0x00,0x00,0x00,0x00,
 0x00,0x00,0x00,0x00,0x00,0x00,0x00,0x00,0x00,0x00,0x00,0xf8,0x0f,0x00,0x00,
 0x00,0x60,0x08,0x00,0x00,0x00,0x60,0x18,0x00,0x00,0x00,0x60,0x02,0x00,0x00,
 0x00,0x60,0x02,0x00,0x00,0x00,0xe0,0x03,0x00,0x00,0x00,0x60,0x02,0x00,0x00,
 0x00,0x60,0x00,0x00,0x00,0x00,0x60,0x00,0x00,0x00,0x00,0xf8,0x01,0x00,0x00,
 0x00,0x00,0x00,0x00,0x00,0x00,0x00,0x00,0x00,0x00,0x00,0x00,0x00,0x00,0x00,
 0x00,0x00,0x00,0x00,0x00,0x00,0x00,0x00,0x00,0x00};
