#define F_m_width 33
#define F_m_height 20
static char F_m_bits[] = {
 0x00,0x00,0x00,0x00,0x00,0x00,0x00,0x00,0x00,0x00,0x00,0x00,0x00,0x00,0x00,
 0x00,0x00,0x00,0x00,0x00,0x00,0x00,0x00,0x00,0x00,0xf0,0x1f,0x00,0x00,0x00,
 0xc0,0x10,0x00,0x00,0x00,0xc0,0x30,0x00,0x00,0x00,0xc0,0x04,0x00,0x00,0x00,
 0xc0,0x84,0xff,0x03,0x00,0xc0,0x87,0x33,0x03,0x00,0xc0,0x84,0x31,0x03,0x00,
 0xc0,0x80,0x31,0x03,0x00,0xc0,0x80,0x31,0x03,0x00,0xf0,0x83,0xfb,0x07,0x00,
 0x00,0x00,0x00,0x00,0x00,0x00,0x00,0x00,0x00,0x00,0x00,0x00,0x00,0x00,0x00,
 0x00,0x00,0x00,0x00,0x00,0x00,0x00,0x00,0x00,0x00};
