#define Fis_width 33
#define Fis_height 20
static char Fis_bits[] = {
 0x00,0x00,0x00,0x00,0x00,0x00,0x00,0x00,0x00,0x00,0x00,0x00,0x00,0x00,0x00,
 0x00,0x00,0x00,0x00,0x00,0x00,0x00,0x80,0x00,0x00,0x00,0xff,0x81,0x00,0x00,
 0x00,0x0c,0x91,0x00,0x00,0x00,0x0c,0xd3,0x01,0x00,0x00,0x4c,0xf0,0x00,0x00,
 0x00,0x4c,0xf0,0x00,0x00,0x00,0x7c,0x90,0x00,0x00,0x00,0x4c,0x90,0x00,0x00,
 0x00,0x0c,0x90,0x00,0x00,0x00,0x0c,0x90,0x00,0x00,0x00,0x3f,0xf0,0x01,0x00,
 0x00,0x00,0xf0,0x00,0x00,0x00,0x00,0x90,0x00,0x00,0x00,0x00,0x10,0x00,0x00,
 0x00,0x00,0x00,0x00,0x00,0x00,0x00,0x00,0x00,0x00};
