#define Fis_m_width 33
#define Fis_m_height 20
static char Fis_m_bits[] = {
 0x00,0x00,0x00,0x00,0x00,0x00,0x00,0x00,0x00,0x00,0x00,0x00,0x00,0x00,0x00,
 0x00,0x00,0x00,0x00,0x00,0x00,0x00,0x01,0x00,0x00,0xfc,0x07,0x01,0x00,0x00,
 0x30,0x24,0x01,0x00,0x00,0x30,0xac,0x03,0x00,0x00,0x30,0xe1,0x01,0x00,0x00,
 0x30,0xe1,0xf9,0x3f,0x00,0xf0,0x21,0x39,0x33,0x00,0x30,0x21,0x19,0x33,0x00,
 0x30,0x20,0x19,0x33,0x00,0x30,0x20,0x19,0x33,0x00,0xfc,0xe0,0xbb,0x7f,0x00,
 0x00,0xe0,0x01,0x00,0x00,0x00,0x20,0x01,0x00,0x00,0x00,0x20,0x00,0x00,0x00,
 0x00,0x00,0x00,0x00,0x00,0x00,0x00,0x00,0x00,0x00};
