#define G_width 33
#define G_height 20
static char G_bits[] = {
 0x00,0x00,0x00,0x00,0x00,0x00,0x00,0x00,0x00,0x00,0x00,0x00,0x00,0x00,0x00,
 0x00,0x00,0x00,0x00,0x00,0x00,0x00,0x00,0x00,0x00,0x00,0xc0,0x17,0x00,0x00,
 0x00,0x30,0x1c,0x00,0x00,0x00,0x30,0x18,0x00,0x00,0x00,0x18,0x10,0x00,0x00,
 0x00,0x18,0x00,0x00,0x00,0x00,0x18,0x00,0x00,0x00,0x00,0x18,0x3e,0x00,0x00,
 0x00,0x18,0x18,0x00,0x00,0x00,0x70,0x18,0x00,0x00,0x00,0xc0,0x1f,0x00,0x00,
 0x00,0x00,0x00,0x00,0x00,0x00,0x00,0x00,0x00,0x00,0x00,0x00,0x00,0x00,0x00,
 0x00,0x00,0x00,0x00,0x00,0x00,0x00,0x00,0x00,0x00};
