#define G_m_width 33
#define G_m_height 20
static char G_m_bits[] = {
 0x00,0x00,0x00,0x00,0x00,0x00,0x00,0x00,0x00,0x00,0x00,0x00,0x00,0x00,0x00,
 0x00,0x00,0x00,0x00,0x00,0x00,0x00,0x00,0x00,0x00,0x80,0x2f,0x00,0x00,0x00,
 0x60,0x38,0x00,0x00,0x00,0x60,0x30,0x00,0x00,0x00,0x30,0x20,0x00,0x00,0x00,
 0x30,0x00,0xfe,0x0f,0x00,0x30,0x00,0xce,0x0c,0x00,0x30,0x7c,0xc6,0x0c,0x00,
 0x30,0x30,0xc6,0x0c,0x00,0xe0,0x30,0xc6,0x0c,0x00,0x80,0x3f,0xee,0x1f,0x00,
 0x00,0x00,0x00,0x00,0x00,0x00,0x00,0x00,0x00,0x00,0x00,0x00,0x00,0x00,0x00,
 0x00,0x00,0x00,0x00,0x00,0x00,0x00,0x00,0x00,0x00};
