#define Ges_width 33
#define Ges_height 20
static char Ges_bits[] = {
 0x00,0x00,0x00,0x00,0x00,0x00,0x00,0x00,0x00,0x00,0x00,0x00,0x00,0x00,0x00,
 0x00,0x00,0x00,0x00,0x00,0x00,0x00,0x10,0x00,0x00,0x00,0xf8,0x12,0x00,0x00,
 0x00,0x86,0x13,0x00,0x00,0x00,0x06,0x13,0x00,0x00,0x00,0x03,0xf2,0x00,0x00,
 0x00,0x03,0x90,0x01,0x00,0x00,0x03,0x90,0x01,0x00,0x00,0xc3,0x97,0x01,0x00,
 0x00,0x03,0xd3,0x00,0x00,0x00,0x0e,0x53,0x00,0x00,0x00,0xf8,0x33,0x00,0x00,
 0x00,0x00,0x00,0x00,0x00,0x00,0x00,0x00,0x00,0x00,0x00,0x00,0x00,0x00,0x00,
 0x00,0x00,0x00,0x00,0x00,0x00,0x00,0x00,0x00,0x00};
