#define Gis_m_width 33
#define Gis_m_height 20
static char Gis_m_bits[] = {
 0x00,0x00,0x00,0x00,0x00,0x00,0x00,0x00,0x00,0x00,0x00,0x00,0x00,0x00,0x00,
 0x00,0x00,0x00,0x00,0x00,0x00,0x00,0x01,0x00,0x00,0xf0,0x05,0x01,0x00,0x00,
 0x0c,0x27,0x01,0x00,0x00,0x0c,0xa6,0x03,0x00,0x00,0x06,0xe4,0x01,0x00,0x00,
 0x06,0xe0,0xf1,0x7f,0x00,0x06,0x20,0x71,0x66,0x00,0x86,0x2f,0x31,0x66,0x00,
 0x06,0x26,0x31,0x66,0x00,0x1c,0x26,0x31,0x66,0x00,0xf0,0xe7,0x73,0xff,0x00,
 0x00,0xe0,0x01,0x00,0x00,0x00,0x20,0x01,0x00,0x00,0x00,0x20,0x00,0x00,0x00,
 0x00,0x00,0x00,0x00,0x00,0x00,0x00,0x00,0x00,0x00};
