#define H_width 33
#define H_height 20
static char H_bits[] = {
 0x00,0x00,0x00,0x00,0x00,0x00,0x00,0x00,0x00,0x00,0x00,0x00,0x00,0x00,0x00,
 0x00,0x00,0x00,0x00,0x00,0x00,0x00,0x00,0x00,0x00,0x00,0xf8,0x0f,0x00,0x00,
 0x00,0x60,0x18,0x00,0x00,0x00,0x60,0x38,0x00,0x00,0x00,0x60,0x18,0x00,0x00,
 0x00,0xe0,0x0f,0x00,0x00,0x00,0x60,0x18,0x00,0x00,0x00,0x60,0x30,0x00,0x00,
 0x00,0x60,0x30,0x00,0x00,0x00,0x60,0x38,0x00,0x00,0x00,0xf8,0x0f,0x00,0x00,
 0x00,0x00,0x00,0x00,0x00,0x00,0x00,0x00,0x00,0x00,0x00,0x00,0x00,0x00,0x00,
 0x00,0x00,0x00,0x00,0x00,0x00,0x00,0x00,0x00,0x00};
