#define H_m_width 33
#define H_m_height 20
static char H_m_bits[] = {
 0x00,0x00,0x00,0x00,0x00,0x00,0x00,0x00,0x00,0x00,0x00,0x00,0x00,0x00,0x00,
 0x00,0x00,0x00,0x00,0x00,0x00,0x00,0x00,0x00,0x00,0xe0,0x3f,0x00,0x00,0x00,
 0x80,0x61,0x00,0x00,0x00,0x80,0xe1,0x00,0x00,0x00,0x80,0x61,0x00,0x00,0x00,
 0x80,0x3f,0xfe,0x0f,0x00,0x80,0x61,0xce,0x0c,0x00,0x80,0xc1,0xc6,0x0c,0x00,
 0x80,0xc1,0xc6,0x0c,0x00,0x80,0xe1,0xc6,0x0c,0x00,0xe0,0x3f,0xee,0x1f,0x00,
 0x00,0x00,0x00,0x00,0x00,0x00,0x00,0x00,0x00,0x00,0x00,0x00,0x00,0x00,0x00,
 0x00,0x00,0x00,0x00,0x00,0x00,0x00,0x00,0x00,0x00};
