#define mt_width 19
#define mt_height 16
static char mt_bits[] = {
 0x00,0x00,0x00,0x00,0x00,0x00,0x00,0x00,0x00,0x00,0x00,0x00,0x00,0x10,0x00,
 0x00,0x10,0x00,0xfe,0xfb,0x00,0x24,0x12,0x00,0x24,0x12,0x00,0x24,0x92,0x06,
 0x7f,0x77,0x06,0x00,0x00,0x00,0x00,0x00,0x00,0x00,0x00,0x00,0x00,0x00,0x00,
 0x00,0x00,0x00};
