#define pu_width 19
#define pu_height 16
static char pu_bits[] = {
 0x00,0x00,0x00,0x00,0x00,0x00,0x00,0x00,0x00,0x00,0x00,0x00,0x00,0x00,0x00,
 0x00,0x00,0x00,0xbe,0x19,0x00,0x62,0x11,0x00,0x42,0x11,0x00,0x42,0x11,0x03,
 0x3e,0x3f,0x03,0x02,0x00,0x00,0x07,0x00,0x00,0x00,0x00,0x00,0x00,0x00,0x00,
 0x00,0x00,0x00};
