#define Py_width 19
#define Py_height 16
static char Py_bits[] = {
 0x00,0x00,0x00,0x00,0x00,0x00,0x00,0x00,0x00,0xff,0x00,0x00,0x86,0x01,0x00,
 0x86,0x01,0x00,0xc6,0xcf,0x00,0x7e,0x4c,0x00,0x0e,0x28,0x00,0x0e,0x38,0x03,
 0x1f,0x10,0x03,0x00,0x10,0x00,0x00,0x0e,0x00,0x00,0x00,0x00,0x00,0x00,0x00,
 0x00,0x00,0x00};
