#define u0_width 19
#define u0_height 16
static char u0_bits[] = {
 0x00,0x00,0x00,0x00,0x00,0x00,0x00,0x00,0x00,0x00,0x00,0x00,0x00,0x00,0x00,
 0x00,0x00,0x00,0x98,0x01,0x00,0x10,0x01,0x00,0x10,0x71,0x00,0x10,0x59,0x00,
 0xf0,0x4b,0x00,0x00,0x48,0x00,0x00,0x78,0x00,0x00,0x00,0x00,0x00,0x00,0x00,
 0x00,0x00,0x00};
