#define u1_width 19
#define u1_height 16
static char u1_bits[] = {
 0x00,0x00,0x00,0x00,0x00,0x00,0x00,0x00,0x00,0x00,0x00,0x00,0x00,0x00,0x00,
 0x00,0x00,0x00,0x98,0x01,0x00,0x10,0x01,0x00,0x10,0x31,0x00,0x10,0x21,0x00,
 0xf0,0x23,0x00,0x00,0x20,0x00,0x00,0x70,0x00,0x00,0x00,0x00,0x00,0x00,0x00,
 0x00,0x00,0x00};
