#define u2_width 19
#define u2_height 16
static char u2_bits[] = {
 0x00,0x00,0x00,0x00,0x00,0x00,0x00,0x00,0x00,0x00,0x00,0x00,0x00,0x00,0x00,
 0x00,0x00,0x00,0x98,0x01,0x00,0x10,0x01,0x00,0x10,0x39,0x00,0x10,0x21,0x00,
 0xf0,0x33,0x00,0x00,0x18,0x00,0x00,0x78,0x00,0x00,0x00,0x00,0x00,0x00,0x00,
 0x00,0x00,0x00};
