#define u3_width 19
#define u3_height 16
static char u3_bits[] = {
 0x00,0x00,0x00,0x00,0x00,0x00,0x00,0x00,0x00,0x00,0x00,0x00,0x00,0x00,0x00,
 0x00,0x00,0x00,0x98,0x01,0x00,0x10,0x01,0x00,0x10,0x39,0x00,0x10,0x21,0x00,
 0xf0,0x33,0x00,0x00,0x68,0x00,0x00,0x38,0x00,0x00,0x00,0x00,0x00,0x00,0x00,
 0x00,0x00,0x00};
